<svg fill="#000000" xmlns="http://www.w3.org/2000/svg"  viewBox="0 0 50 50" width="50px" height="50px"><path d="M25,8c9.389,0,17,7.611,17,17s-7.611,17-17,17S8,34.389,8,25S15.611,8,25,8z M34.584,30.653	c0.426-0.431,0.489-0.899,0.35-1.345c-0.183-0.586-0.823-0.789-1.194-1.001c-2.029-1.161-2.37-2.263-2.45-2.435	c-0.081-0.174-0.134-0.287,0.082-0.463c0.199-0.163,1.264-0.68,1.712-1.46c0.232-0.405,0.294-1.021,0.084-1.452	c-0.335-0.689-0.891-1.09-1.661-1.09c-0.282,0-0.567,0.072-0.608,0.082c-0.015-0.444-0.016-0.959-0.045-1.423	c-0.119-1.939-1.719-5.171-5.853-5.171s-5.734,3.232-5.853,5.171c-0.029,0.464-0.03,0.979-0.045,1.423	c-0.041-0.01-0.326-0.082-0.608-0.082c-0.77,0-1.326,0.402-1.661,1.09c-0.21,0.431-0.148,1.047,0.084,1.452	c0.448,0.78,1.513,1.297,1.712,1.46c0.216,0.176,0.162,0.289,0.082,0.463c-0.08,0.173-0.421,1.274-2.45,2.435	c-0.371,0.212-1.011,0.415-1.194,1.001c-0.139,0.445-0.076,0.914,0.35,1.345c0.679,0.688,1.865,0.859,2.015,1.001	c0.15,0.142,0.216,0.68,0.694,0.987c0.478,0.307,1.068,0.299,1.37,0.323c1.217,0.093,1.536,0.149,2.294,0.633	c0.245,0.156,1.449,1.003,3.211,1.003s2.966-0.846,3.211-1.003c0.759-0.484,1.077-0.54,2.294-0.633	c0.302-0.023,0.892-0.015,1.37-0.323c0.478-0.307,0.544-0.845,0.694-0.987C32.719,31.512,33.905,31.341,34.584,30.653z"/></svg>